# MagicaVoxel @ Ephtracy

# group
g music-alien

# material
mtllib music-alien.mtl
usemtl palette

# normals
vn -1 0 0
vn 1 0 0
vn 0 0 1
vn 0 0 -1
vn 0 -1 0
vn 0 1 0

# texcoords
vt 0.306641 0.5
vt 0.939453 0.5
vt 0.943359 0.5
vt 0.970703 0.5
vt 0.974609 0.5

# verts
v -8 12 5.5
v -8 12 -5.5
v -8 16 5.5
v -8 16 -5.5
v -7 8 5.5
v -7 8 -5.5
v -7 9 5.5
v -7 9 -5.5
v -6 11 5.5
v -6 11 -5.5
v -6 12 5.5
v -6 12 -5.5
v -6 16 5.5
v -6 16 -5.5
v -6 19 5.5
v -6 19 -5.5
v -5 10 5.5
v -5 10 -5.5
v -5 11 5.5
v -5 11 -5.5
v -3 3 5.5
v -3 3 -5.5
v -3 8 5.5
v -3 8 -5.5
v -3 9 5.5
v -3 9 -5.5
v -3 10 5.5
v -3 10 -5.5
v -2 0 5.5
v -2 0 -5.5
v -2 3 5.5
v -2 3 -5.5
v 1 0 5.5
v 1 0 -5.5
v 1 3 5.5
v 1 3 -5.5
v -1 0 5.5
v -1 0 -5.5
v -1 3 5.5
v -1 3 -5.5
v 2 0 5.5
v 2 0 -5.5
v 2 3 5.5
v 2 3 -5.5
v 3 3 5.5
v 3 3 -5.5
v 3 8 5.5
v 3 8 -5.5
v 3 9 5.5
v 3 9 -5.5
v 3 10 5.5
v 3 10 -5.5
v 5 10 5.5
v 5 10 -5.5
v 5 11 5.5
v 5 11 -5.5
v 6 11 5.5
v 6 11 -5.5
v 6 12 5.5
v 6 12 -5.5
v 6 16 5.5
v 6 16 -5.5
v 6 19 5.5
v 6 19 -5.5
v 7 8 5.5
v 7 8 -5.5
v 7 9 5.5
v 7 9 -5.5
v 8 12 5.5
v 8 12 -5.5
v 8 16 5.5
v 8 16 -5.5
v -8 12 5.5
v -8 16 5.5
v -7 8 5.5
v -7 9 5.5
v -6 11 5.5
v -6 12 5.5
v -6 16 5.5
v -6 19 5.5
v -5 10 5.5
v -5 11 5.5
v -5 18 5.5
v -3 3 5.5
v -3 8 5.5
v -3 9 5.5
v -3 10 5.5
v -3 14 5.5
v -3 15 5.5
v -2 0 5.5
v -2 3 5.5
v -1 0 5.5
v -1 3 5.5
v -1 11 5.5
v -1 12 5.5
v -1 14 5.5
v -1 15 5.5
v 1 0 5.5
v 1 3 5.5
v 1 11 5.5
v 1 12 5.5
v 1 14 5.5
v 1 15 5.5
v 2 0 5.5
v 2 3 5.5
v 3 3 5.5
v 3 8 5.5
v 3 9 5.5
v 3 10 5.5
v 3 14 5.5
v 3 15 5.5
v 5 10 5.5
v 5 11 5.5
v 5 18 5.5
v 6 11 5.5
v 6 12 5.5
v 6 16 5.5
v 6 19 5.5
v 7 8 5.5
v 7 9 5.5
v 8 12 5.5
v 8 16 5.5
v -8 12 -5.5
v -8 16 -5.5
v -7 8 -5.5
v -7 9 -5.5
v -6 11 -5.5
v -6 12 -5.5
v -6 16 -5.5
v -6 19 -5.5
v -5 10 -5.5
v -5 11 -5.5
v -5 18 -5.5
v -3 3 -5.5
v -3 8 -5.5
v -3 9 -5.5
v -3 10 -5.5
v -2 0 -5.5
v -2 3 -5.5
v -1 0 -5.5
v -1 3 -5.5
v 1 0 -5.5
v 1 3 -5.5
v 2 0 -5.5
v 2 3 -5.5
v 3 3 -5.5
v 3 8 -5.5
v 3 9 -5.5
v 3 10 -5.5
v 5 10 -5.5
v 5 11 -5.5
v 5 18 -5.5
v 6 11 -5.5
v 6 12 -5.5
v 6 16 -5.5
v 6 19 -5.5
v 7 8 -5.5
v 7 9 -5.5
v 8 12 -5.5
v 8 16 -5.5
v -2 0 5.5
v -1 0 5.5
v 1 0 5.5
v 2 0 5.5
v -2 0 -5.5
v -1 0 -5.5
v 1 0 -5.5
v 2 0 -5.5
v -3 3 5.5
v -2 3 5.5
v -1 3 5.5
v 1 3 5.5
v 2 3 5.5
v 3 3 5.5
v -3 3 -5.5
v -2 3 -5.5
v -1 3 -5.5
v 1 3 -5.5
v 2 3 -5.5
v 3 3 -5.5
v -7 8 5.5
v -3 8 5.5
v 3 8 5.5
v 7 8 5.5
v -7 8 -5.5
v -3 8 -5.5
v 3 8 -5.5
v 7 8 -5.5
v -5 10 5.5
v -3 10 5.5
v 3 10 5.5
v 5 10 5.5
v -5 10 -5.5
v -3 10 -5.5
v 3 10 -5.5
v 5 10 -5.5
v -6 11 5.5
v -5 11 5.5
v 5 11 5.5
v 6 11 5.5
v -6 11 -5.5
v -5 11 -5.5
v 5 11 -5.5
v 6 11 -5.5
v -8 12 5.5
v -6 12 5.5
v 6 12 5.5
v 8 12 5.5
v -8 12 -5.5
v -6 12 -5.5
v 6 12 -5.5
v 8 12 -5.5
v -7 9 5.5
v -3 9 5.5
v 3 9 5.5
v 7 9 5.5
v -7 9 -5.5
v -3 9 -5.5
v 3 9 -5.5
v 7 9 -5.5
v -8 16 5.5
v -6 16 5.5
v 6 16 5.5
v 8 16 5.5
v -8 16 -5.5
v -6 16 -5.5
v 6 16 -5.5
v 8 16 -5.5
v -6 19 5.5
v 6 19 5.5
v -6 19 -5.5
v 6 19 -5.5

# faces
f 3/2/1 2/2/1 1/2/1
f 4/2/1 2/2/1 3/2/1
f 7/4/1 6/4/1 5/4/1
f 8/4/1 6/4/1 7/4/1
f 11/2/1 10/2/1 9/2/1
f 12/2/1 10/2/1 11/2/1
f 15/2/1 14/2/1 13/2/1
f 16/2/1 14/2/1 15/2/1
f 19/4/1 18/4/1 17/4/1
f 20/4/1 18/4/1 19/4/1
f 23/4/1 22/4/1 21/4/1
f 24/4/1 22/4/1 23/4/1
f 27/4/1 26/4/1 25/4/1
f 28/4/1 26/4/1 27/4/1
f 31/4/1 30/4/1 29/4/1
f 32/4/1 30/4/1 31/4/1
f 35/4/1 34/4/1 33/4/1
f 36/4/1 34/4/1 35/4/1
f 37/4/2 38/4/2 39/4/2
f 39/4/2 38/4/2 40/4/2
f 41/4/2 42/4/2 43/4/2
f 43/4/2 42/4/2 44/4/2
f 45/4/2 46/4/2 47/4/2
f 47/4/2 46/4/2 48/4/2
f 49/4/2 50/4/2 51/4/2
f 51/4/2 50/4/2 52/4/2
f 53/4/2 54/4/2 55/4/2
f 55/4/2 54/4/2 56/4/2
f 57/2/2 58/2/2 59/2/2
f 59/2/2 58/2/2 60/2/2
f 61/2/2 62/2/2 63/2/2
f 63/2/2 62/2/2 64/2/2
f 65/4/2 66/4/2 67/4/2
f 67/4/2 66/4/2 68/4/2
f 69/2/2 70/2/2 71/2/2
f 71/2/2 70/2/2 72/2/2
f 78/2/3 74/2/3 73/2/3
f 79/2/3 74/2/3 78/2/3
f 82/2/3 78/2/3 77/2/3
f 82/2/3 80/2/3 79/2/3
f 82/2/3 79/2/3 78/2/3
f 83/2/3 80/2/3 82/2/3
f 85/4/3 76/4/3 75/4/3
f 86/4/3 76/4/3 85/4/3
f 87/4/3 82/4/3 81/4/3
f 87/4/3 83/4/3 82/4/3
f 88/4/3 83/4/3 87/4/3
f 89/4/3 83/4/3 88/4/3
f 91/4/3 86/4/3 85/4/3
f 91/4/3 85/4/3 84/4/3
f 91/4/3 87/4/3 86/4/3
f 91/4/3 88/4/3 87/4/3
f 92/4/3 91/4/3 90/4/3
f 93/4/3 88/4/3 91/4/3
f 93/4/3 91/4/3 92/4/3
f 94/4/3 88/4/3 93/4/3
f 95/4/3 88/4/3 94/4/3
f 96/3/3 89/3/3 88/3/3
f 96/4/3 88/4/3 95/4/3
f 97/4/3 83/4/3 89/4/3
f 97/3/3 89/3/3 96/3/3
f 99/4/3 94/4/3 93/4/3
f 100/5/3 95/5/3 94/5/3
f 100/4/3 94/4/3 99/4/3
f 101/4/3 96/4/3 95/4/3
f 101/5/3 95/5/3 100/5/3
f 101/4/3 97/4/3 96/4/3
f 102/4/3 97/4/3 101/4/3
f 103/4/3 83/4/3 97/4/3
f 103/4/3 97/4/3 102/4/3
f 104/4/3 100/4/3 99/4/3
f 104/4/3 99/4/3 98/4/3
f 104/4/3 102/4/3 101/4/3
f 104/4/3 101/4/3 100/4/3
f 105/4/3 102/4/3 104/4/3
f 106/4/3 102/4/3 105/4/3
f 107/4/3 102/4/3 106/4/3
f 108/4/3 102/4/3 107/4/3
f 109/4/3 102/4/3 108/4/3
f 110/3/3 103/3/3 102/3/3
f 110/4/3 102/4/3 109/4/3
f 111/4/3 83/4/3 103/4/3
f 111/3/3 103/3/3 110/3/3
f 112/4/3 110/4/3 109/4/3
f 112/4/3 111/4/3 110/4/3
f 113/4/3 111/4/3 112/4/3
f 114/2/3 80/2/3 83/2/3
f 114/4/3 111/4/3 113/4/3
f 114/4/3 83/4/3 111/4/3
f 115/2/3 114/2/3 113/2/3
f 116/2/3 114/2/3 115/2/3
f 117/2/3 114/2/3 116/2/3
f 118/2/3 80/2/3 114/2/3
f 118/2/3 114/2/3 117/2/3
f 119/4/3 108/4/3 107/4/3
f 120/4/3 108/4/3 119/4/3
f 121/2/3 117/2/3 116/2/3
f 122/2/3 117/2/3 121/2/3
f 123/2/4 124/2/4 128/2/4
f 128/2/4 124/2/4 129/2/4
f 127/2/4 128/2/4 132/2/4
f 129/2/4 130/2/4 132/2/4
f 128/2/4 129/2/4 132/2/4
f 132/2/4 130/2/4 133/2/4
f 125/4/4 126/4/4 135/4/4
f 135/4/4 126/4/4 136/4/4
f 131/4/4 132/4/4 137/4/4
f 132/4/4 133/4/4 137/4/4
f 135/4/4 136/4/4 139/4/4
f 136/4/4 137/4/4 139/4/4
f 134/4/4 135/4/4 139/4/4
f 138/4/4 139/4/4 140/4/4
f 139/4/4 137/4/4 141/4/4
f 140/4/4 139/4/4 141/4/4
f 141/4/4 137/4/4 143/4/4
f 142/4/4 143/4/4 144/4/4
f 143/4/4 137/4/4 145/4/4
f 144/4/4 143/4/4 145/4/4
f 145/4/4 137/4/4 146/4/4
f 146/4/4 137/4/4 147/4/4
f 147/4/4 137/4/4 148/4/4
f 137/4/4 133/4/4 149/4/4
f 148/4/4 137/4/4 149/4/4
f 149/4/4 133/4/4 150/4/4
f 150/4/4 133/4/4 151/4/4
f 133/2/4 130/2/4 152/2/4
f 151/4/4 133/4/4 152/4/4
f 151/2/4 152/2/4 153/2/4
f 153/2/4 152/2/4 154/2/4
f 154/2/4 152/2/4 155/2/4
f 152/2/4 130/2/4 156/2/4
f 155/2/4 152/2/4 156/2/4
f 147/4/4 148/4/4 157/4/4
f 157/4/4 148/4/4 158/4/4
f 154/2/4 155/2/4 159/2/4
f 159/2/4 155/2/4 160/2/4
f 165/4/5 162/4/5 161/4/5
f 166/4/5 162/4/5 165/4/5
f 167/4/5 164/4/5 163/4/5
f 168/4/5 164/4/5 167/4/5
f 175/4/5 170/4/5 169/4/5
f 176/4/5 170/4/5 175/4/5
f 177/4/5 172/4/5 171/4/5
f 178/4/5 172/4/5 177/4/5
f 179/4/5 174/4/5 173/4/5
f 180/4/5 174/4/5 179/4/5
f 185/4/5 182/4/5 181/4/5
f 186/4/5 182/4/5 185/4/5
f 187/4/5 184/4/5 183/4/5
f 188/4/5 184/4/5 187/4/5
f 193/4/5 190/4/5 189/4/5
f 194/4/5 190/4/5 193/4/5
f 195/4/5 192/4/5 191/4/5
f 196/4/5 192/4/5 195/4/5
f 201/2/5 198/2/5 197/2/5
f 202/2/5 198/2/5 201/2/5
f 203/2/5 200/2/5 199/2/5
f 204/2/5 200/2/5 203/2/5
f 209/2/5 206/2/5 205/2/5
f 210/2/5 206/2/5 209/2/5
f 211/2/5 208/2/5 207/2/5
f 212/2/5 208/2/5 211/2/5
f 213/4/6 214/4/6 217/4/6
f 217/4/6 214/4/6 218/4/6
f 215/4/6 216/4/6 219/4/6
f 219/4/6 216/4/6 220/4/6
f 221/2/6 222/2/6 225/2/6
f 225/2/6 222/2/6 226/2/6
f 223/2/6 224/2/6 227/2/6
f 227/2/6 224/2/6 228/2/6
f 229/2/6 230/2/6 231/2/6
f 231/2/6 230/2/6 232/2/6
