# MagicaVoxel @ Ephtracy

# group
g peripper

# material
mtllib peripper.mtl
usemtl palette

# normals
vn -1 0 0
vn 1 0 0
vn 0 0 1
vn 0 0 -1
vn 0 -1 0
vn 0 1 0

# texcoords
vt 0.00195312 0.5
vt 0.0136719 0.5
vt 0.0214844 0.5
vt 0.0566406 0.5
vt 0.306641 0.5
vt 0.759766 0.5
vt 0.822266 0.5
vt 0.841797 0.5
vt 0.919922 0.5
vt 0.958984 0.5
vt 0.994141 0.5

# verts
v -11 13 7
v -11 13 6
v -11 13 -7
v -11 16 6
v -11 16 -7
v -11 26 7
v -11 26 6
v -11 26 -7
v -7 0 7
v -7 0 6
v -7 0 -7
v -7 3 6
v -7 3 -7
v -7 13 7
v -7 13 6
v -7 13 -7
v -6 30 7
v -6 30 -7
v -6 35 7
v -6 35 -7
v -5 28 7
v -5 28 -7
v -5 30 7
v -5 30 -7
v -5 35 7
v -5 35 -7
v -5 37 7
v -5 37 -7
v -4 27 7
v -4 27 -7
v -4 28 7
v -4 28 -7
v -4 37 7
v -4 37 -7
v -4 38 7
v -4 38 -7
v -2 26 7
v -2 26 6
v -2 26 -7
v -2 27 7
v -2 27 -7
v -2 38 7
v -2 38 -7
v -2 39 7
v -2 39 -7
v 0 27 9
v 0 27 7
v 0 28 9
v 0 28 7
v 0 30 9
v 0 30 7
v 0 31 9
v 0 31 7
v 2 27 9
v 2 27 7
v 2 28 9
v 2 28 7
v 2 30 9
v 2 30 7
v 2 31 9
v 2 31 7
v 3 26 7
v 3 26 6
v 3 26 -7
v 3 27 7
v 3 27 -7
v 3 38 7
v 3 38 -7
v 3 39 7
v 3 39 -7
v 5 27 7
v 5 27 -7
v 5 28 7
v 5 28 -7
v 5 37 7
v 5 37 -7
v 5 38 7
v 5 38 -7
v 6 28 7
v 6 28 -7
v 6 30 7
v 6 30 -7
v 6 35 7
v 6 35 -7
v 6 37 7
v 6 37 -7
v 7 30 7
v 7 30 -7
v 7 35 7
v 7 35 -7
v 8 0 7
v 8 0 6
v 8 0 -7
v 8 3 6
v 8 3 -7
v 8 13 7
v 8 13 6
v 8 13 -7
v 12 13 7
v 12 13 6
v 12 13 -7
v 12 16 6
v 12 16 -7
v 12 26 7
v 12 26 6
v 12 26 -7
v 0 27 9
v 0 28 9
v 0 30 9
v 0 31 9
v 2 27 9
v 2 28 9
v 2 30 9
v 2 31 9
v -11 13 7
v -11 26 7
v -10 14 7
v -10 16 7
v -10 25 7
v -7 0 7
v -7 13 7
v -7 14 7
v -7 16 7
v -7 25 7
v -6 0 7
v -6 3 7
v -6 13 7
v -6 14 7
v -6 25 7
v -6 30 7
v -6 35 7
v -5 28 7
v -5 30 7
v -5 31 7
v -5 33 7
v -5 35 7
v -5 37 7
v -4 27 7
v -4 28 7
v -4 30 7
v -4 31 7
v -4 37 7
v -4 38 7
v -2 26 7
v -2 27 7
v -2 30 7
v -2 33 7
v -2 38 7
v -2 39 7
v 0 0 7
v 0 3 7
v 0 13 7
v 0 27 7
v 0 28 7
v 0 29 7
v 0 30 7
v 0 31 7
v 1 0 7
v 1 3 7
v 1 13 7
v 1 28 7
v 1 29 7
v 2 27 7
v 2 28 7
v 2 30 7
v 2 31 7
v 3 26 7
v 3 27 7
v 3 32 7
v 3 35 7
v 3 38 7
v 3 39 7
v 5 27 7
v 5 28 7
v 5 34 7
v 5 35 7
v 5 37 7
v 5 38 7
v 6 28 7
v 6 30 7
v 6 32 7
v 6 34 7
v 6 35 7
v 6 37 7
v 7 0 7
v 7 3 7
v 7 13 7
v 7 14 7
v 7 25 7
v 7 30 7
v 7 35 7
v 8 0 7
v 8 13 7
v 8 14 7
v 8 16 7
v 8 25 7
v 11 14 7
v 11 16 7
v 11 25 7
v 12 13 7
v 12 26 7
v -11 13 -7
v -11 16 -7
v -11 26 -7
v -7 0 -7
v -7 3 -7
v -7 13 -7
v -7 16 -7
v -6 30 -7
v -6 35 -7
v -5 28 -7
v -5 30 -7
v -5 35 -7
v -5 37 -7
v -4 27 -7
v -4 28 -7
v -4 37 -7
v -4 38 -7
v -2 26 -7
v -2 27 -7
v -2 38 -7
v -2 39 -7
v 3 26 -7
v 3 27 -7
v 3 38 -7
v 3 39 -7
v 5 27 -7
v 5 28 -7
v 5 37 -7
v 5 38 -7
v 6 28 -7
v 6 30 -7
v 6 35 -7
v 6 37 -7
v 7 30 -7
v 7 35 -7
v 8 0 -7
v 8 3 -7
v 8 13 -7
v 8 16 -7
v 12 13 -7
v 12 16 -7
v 12 26 -7
v -7 0 7
v -6 0 7
v 0 0 7
v 1 0 7
v 7 0 7
v 8 0 7
v -7 0 6
v -6 0 6
v 0 0 6
v 1 0 6
v 7 0 6
v 8 0 6
v -7 0 -7
v 8 0 -7
v -11 13 7
v -7 13 7
v 8 13 7
v 12 13 7
v -11 13 6
v -7 13 6
v 8 13 6
v 12 13 6
v -11 13 -7
v -7 13 -7
v 8 13 -7
v 12 13 -7
v 0 27 9
v 2 27 9
v -4 27 7
v -2 27 7
v 0 27 7
v 2 27 7
v 3 27 7
v 5 27 7
v -4 27 -7
v -2 27 -7
v 3 27 -7
v 5 27 -7
v -5 28 7
v -4 28 7
v 5 28 7
v 6 28 7
v -5 28 -7
v -4 28 -7
v 5 28 -7
v 6 28 -7
v 0 30 9
v 2 30 9
v -6 30 7
v -5 30 7
v 0 30 7
v 2 30 7
v 6 30 7
v 7 30 7
v -6 30 -7
v -5 30 -7
v 6 30 -7
v 7 30 -7
v -11 26 7
v -2 26 7
v 3 26 7
v 12 26 7
v -11 26 6
v -2 26 6
v 3 26 6
v 12 26 6
v -11 26 -7
v -2 26 -7
v 3 26 -7
v 12 26 -7
v 0 28 9
v 2 28 9
v 0 28 7
v 1 28 7
v 2 28 7
v 0 31 9
v 2 31 9
v 0 31 7
v 2 31 7
v -6 35 7
v -5 35 7
v 6 35 7
v 7 35 7
v -6 35 -7
v -5 35 -7
v 6 35 -7
v 7 35 -7
v -5 37 7
v -4 37 7
v 5 37 7
v 6 37 7
v -5 37 -7
v -4 37 -7
v 5 37 -7
v 6 37 -7
v -4 38 7
v -2 38 7
v 3 38 7
v 5 38 7
v -4 38 -7
v -2 38 -7
v 3 38 -7
v 5 38 -7
v -2 39 7
v 3 39 7
v -2 39 -7
v 3 39 -7

# faces
f 4/11/1 2/11/1 1/11/1
f 4/6/1 3/6/1 2/6/1
f 5/6/1 3/6/1 4/6/1
f 6/11/1 4/11/1 1/11/1
f 7/1/1 5/1/1 4/1/1
f 7/11/1 4/11/1 6/11/1
f 8/1/1 5/1/1 7/1/1
f 12/11/1 10/11/1 9/11/1
f 12/2/1 11/2/1 10/2/1
f 13/2/1 11/2/1 12/2/1
f 14/11/1 12/11/1 9/11/1
f 15/6/1 13/6/1 12/6/1
f 15/11/1 12/11/1 14/11/1
f 16/6/1 13/6/1 15/6/1
f 19/6/1 18/6/1 17/6/1
f 20/6/1 18/6/1 19/6/1
f 23/6/1 22/6/1 21/6/1
f 24/6/1 22/6/1 23/6/1
f 27/6/1 26/6/1 25/6/1
f 28/6/1 26/6/1 27/6/1
f 31/6/1 30/6/1 29/6/1
f 32/6/1 30/6/1 31/6/1
f 35/6/1 34/6/1 33/6/1
f 36/6/1 34/6/1 35/6/1
f 40/6/1 38/6/1 37/6/1
f 40/6/1 39/6/1 38/6/1
f 41/6/1 39/6/1 40/6/1
f 44/6/1 43/6/1 42/6/1
f 45/6/1 43/6/1 44/6/1
f 48/3/1 47/3/1 46/3/1
f 49/3/1 47/3/1 48/3/1
f 52/3/1 51/3/1 50/3/1
f 53/3/1 51/3/1 52/3/1
f 54/3/2 55/3/2 56/3/2
f 56/3/2 55/3/2 57/3/2
f 58/3/2 59/3/2 60/3/2
f 60/3/2 59/3/2 61/3/2
f 62/6/2 63/6/2 65/6/2
f 63/6/2 64/6/2 65/6/2
f 65/6/2 64/6/2 66/6/2
f 67/6/2 68/6/2 69/6/2
f 69/6/2 68/6/2 70/6/2
f 71/6/2 72/6/2 73/6/2
f 73/6/2 72/6/2 74/6/2
f 75/6/2 76/6/2 77/6/2
f 77/6/2 76/6/2 78/6/2
f 79/6/2 80/6/2 81/6/2
f 81/6/2 80/6/2 82/6/2
f 83/6/2 84/6/2 85/6/2
f 85/6/2 84/6/2 86/6/2
f 87/6/2 88/6/2 89/6/2
f 89/6/2 88/6/2 90/6/2
f 91/11/2 92/11/2 94/11/2
f 92/2/2 93/2/2 94/2/2
f 94/2/2 93/2/2 95/2/2
f 91/11/2 94/11/2 96/11/2
f 94/6/2 95/6/2 97/6/2
f 96/11/2 94/11/2 97/11/2
f 97/6/2 95/6/2 98/6/2
f 99/11/2 100/11/2 102/11/2
f 100/6/2 101/6/2 102/6/2
f 102/6/2 101/6/2 103/6/2
f 99/11/2 102/11/2 104/11/2
f 102/1/2 103/1/2 105/1/2
f 104/11/2 102/11/2 105/11/2
f 105/1/2 103/1/2 106/1/2
f 111/3/3 108/3/3 107/3/3
f 112/3/3 108/3/3 111/3/3
f 113/3/3 110/3/3 109/3/3
f 114/3/3 110/3/3 113/3/3
f 117/11/3 116/11/3 115/11/3
f 118/11/3 116/11/3 117/11/3
f 119/11/3 116/11/3 118/11/3
f 121/11/3 117/11/3 115/11/3
f 122/6/3 118/6/3 117/6/3
f 122/11/3 117/11/3 121/11/3
f 123/10/3 119/10/3 118/10/3
f 123/6/3 118/6/3 122/6/3
f 124/11/3 116/11/3 119/11/3
f 124/10/3 119/10/3 123/10/3
f 125/11/3 123/11/3 122/11/3
f 125/11/3 121/11/3 120/11/3
f 125/11/3 124/11/3 123/11/3
f 125/11/3 122/11/3 121/11/3
f 126/11/3 124/11/3 125/11/3
f 127/11/3 124/11/3 126/11/3
f 128/11/3 124/11/3 127/11/3
f 129/11/3 116/11/3 124/11/3
f 129/11/3 124/11/3 128/11/3
f 133/6/3 131/6/3 130/6/3
f 134/6/3 131/6/3 133/6/3
f 135/6/3 131/6/3 134/6/3
f 136/6/3 131/6/3 135/6/3
f 139/6/3 133/6/3 132/6/3
f 140/11/3 134/11/3 133/11/3
f 140/6/3 133/6/3 139/6/3
f 141/1/3 135/1/3 134/1/3
f 141/11/3 134/11/3 140/11/3
f 142/6/3 137/6/3 136/6/3
f 142/6/3 136/6/3 135/6/3
f 144/11/3 116/11/3 129/11/3
f 145/6/3 139/6/3 138/6/3
f 145/6/3 140/6/3 139/6/3
f 146/1/3 141/1/3 140/1/3
f 146/6/3 140/6/3 145/6/3
f 147/6/3 143/6/3 142/6/3
f 147/1/3 141/1/3 146/1/3
f 147/1/3 135/1/3 141/1/3
f 147/6/3 142/6/3 135/6/3
f 148/6/3 143/6/3 147/6/3
f 150/3/3 126/3/3 125/3/3
f 151/6/3 127/6/3 126/6/3
f 151/3/3 126/3/3 150/3/3
f 152/11/3 128/11/3 127/11/3
f 152/6/3 127/6/3 151/6/3
f 153/6/3 149/6/3 148/6/3
f 153/6/3 146/6/3 145/6/3
f 153/6/3 145/6/3 144/6/3
f 153/6/3 148/6/3 147/6/3
f 153/6/3 147/6/3 146/6/3
f 154/6/3 149/6/3 153/6/3
f 155/6/3 149/6/3 154/6/3
f 156/6/3 149/6/3 155/6/3
f 157/6/3 149/6/3 156/6/3
f 158/11/3 151/11/3 150/11/3
f 158/11/3 152/11/3 151/11/3
f 159/11/3 152/11/3 158/11/3
f 160/11/3 128/11/3 152/11/3
f 160/11/3 152/11/3 159/11/3
f 161/8/3 155/8/3 154/8/3
f 162/4/3 156/4/3 155/4/3
f 162/8/3 155/8/3 161/8/3
f 163/6/3 153/6/3 144/6/3
f 164/4/3 162/4/3 161/4/3
f 165/4/3 156/4/3 162/4/3
f 165/4/3 162/4/3 164/4/3
f 166/6/3 149/6/3 157/6/3
f 167/6/3 165/6/3 164/6/3
f 167/6/3 166/6/3 165/6/3
f 167/11/3 144/11/3 129/11/3
f 167/6/3 164/6/3 163/6/3
f 167/6/3 163/6/3 144/6/3
f 168/6/3 166/6/3 167/6/3
f 169/6/3 149/6/3 166/6/3
f 169/6/3 166/6/3 168/6/3
f 170/6/3 149/6/3 169/6/3
f 171/6/3 149/6/3 170/6/3
f 172/6/3 149/6/3 171/6/3
f 173/6/3 169/6/3 168/6/3
f 174/6/3 169/6/3 173/6/3
f 175/10/3 170/10/3 169/10/3
f 176/6/3 171/6/3 170/6/3
f 176/10/3 170/10/3 175/10/3
f 177/6/3 171/6/3 176/6/3
f 178/6/3 171/6/3 177/6/3
f 179/6/3 169/6/3 174/6/3
f 180/6/3 169/6/3 179/6/3
f 181/10/3 175/10/3 169/10/3
f 181/6/3 169/6/3 180/6/3
f 182/11/3 176/11/3 175/11/3
f 182/10/3 175/10/3 181/10/3
f 183/6/3 177/6/3 176/6/3
f 183/11/3 176/11/3 182/11/3
f 184/6/3 177/6/3 183/6/3
f 185/3/3 159/3/3 158/3/3
f 186/6/3 160/6/3 159/6/3
f 186/3/3 159/3/3 185/3/3
f 187/11/3 128/11/3 160/11/3
f 187/6/3 160/6/3 186/6/3
f 188/10/3 129/10/3 128/10/3
f 188/11/3 128/11/3 187/11/3
f 189/11/3 167/11/3 129/11/3
f 189/10/3 129/10/3 188/10/3
f 190/6/3 183/6/3 182/6/3
f 190/6/3 182/6/3 181/6/3
f 190/6/3 181/6/3 180/6/3
f 191/6/3 183/6/3 190/6/3
f 192/11/3 187/11/3 186/11/3
f 192/11/3 186/11/3 185/11/3
f 192/11/3 188/11/3 187/11/3
f 192/11/3 189/11/3 188/11/3
f 193/11/3 189/11/3 192/11/3
f 194/11/3 189/11/3 193/11/3
f 195/11/3 189/11/3 194/11/3
f 196/11/3 167/11/3 189/11/3
f 196/11/3 189/11/3 195/11/3
f 197/6/3 195/6/3 194/6/3
f 197/11/3 194/11/3 193/11/3
f 198/10/3 196/10/3 195/10/3
f 198/6/3 195/6/3 197/6/3
f 199/11/3 167/11/3 196/11/3
f 199/10/3 196/10/3 198/10/3
f 200/11/3 198/11/3 197/11/3
f 200/11/3 197/11/3 193/11/3
f 200/11/3 199/11/3 198/11/3
f 201/11/3 167/11/3 199/11/3
f 201/11/3 199/11/3 200/11/3
f 202/6/4 203/6/4 207/6/4
f 203/1/4 204/1/4 208/1/4
f 207/6/4 203/6/4 208/6/4
f 209/6/4 210/6/4 212/6/4
f 212/6/4 210/6/4 213/6/4
f 211/6/4 212/6/4 216/6/4
f 213/6/4 214/6/4 216/6/4
f 212/6/4 213/6/4 216/6/4
f 216/6/4 214/6/4 217/6/4
f 207/1/4 208/1/4 219/1/4
f 208/1/4 204/1/4 219/1/4
f 217/6/4 218/6/4 220/6/4
f 216/6/4 217/6/4 220/6/4
f 215/6/4 216/6/4 220/6/4
f 220/6/4 218/6/4 221/6/4
f 207/1/4 219/1/4 223/1/4
f 221/6/4 222/6/4 223/6/4
f 220/6/4 221/6/4 223/6/4
f 219/6/4 220/6/4 223/6/4
f 223/6/4 222/6/4 224/6/4
f 224/6/4 222/6/4 225/6/4
f 225/6/4 222/6/4 226/6/4
f 224/6/4 225/6/4 227/6/4
f 227/6/4 225/6/4 228/6/4
f 228/6/4 225/6/4 229/6/4
f 229/6/4 225/6/4 230/6/4
f 228/6/4 229/6/4 231/6/4
f 231/6/4 229/6/4 232/6/4
f 232/6/4 229/6/4 233/6/4
f 233/6/4 229/6/4 234/6/4
f 232/6/4 233/6/4 235/6/4
f 235/6/4 233/6/4 236/6/4
f 205/2/4 206/2/4 237/2/4
f 206/6/4 207/6/4 238/6/4
f 237/2/4 206/2/4 238/2/4
f 207/1/4 223/1/4 239/1/4
f 238/6/4 207/6/4 239/6/4
f 239/1/4 223/1/4 240/1/4
f 239/6/4 240/6/4 241/6/4
f 240/1/4 223/1/4 242/1/4
f 241/6/4 240/6/4 242/6/4
f 242/1/4 223/1/4 243/1/4
f 250/11/5 245/11/5 244/11/5
f 251/3/5 246/3/5 245/3/5
f 251/11/5 245/11/5 250/11/5
f 252/11/5 247/11/5 246/11/5
f 252/3/5 246/3/5 251/3/5
f 253/3/5 248/3/5 247/3/5
f 253/11/5 247/11/5 252/11/5
f 254/11/5 249/11/5 248/11/5
f 254/3/5 248/3/5 253/3/5
f 255/11/5 249/11/5 254/11/5
f 256/2/5 253/2/5 252/2/5
f 256/2/5 251/2/5 250/2/5
f 256/2/5 255/2/5 254/2/5
f 256/2/5 254/2/5 253/2/5
f 256/2/5 252/2/5 251/2/5
f 257/2/5 255/2/5 256/2/5
f 262/11/5 259/11/5 258/11/5
f 263/11/5 259/11/5 262/11/5
f 264/11/5 261/11/5 260/11/5
f 265/11/5 261/11/5 264/11/5
f 266/6/5 263/6/5 262/6/5
f 267/6/5 263/6/5 266/6/5
f 268/6/5 265/6/5 264/6/5
f 269/6/5 265/6/5 268/6/5
f 274/3/5 271/3/5 270/3/5
f 275/3/5 271/3/5 274/3/5
f 278/6/5 273/6/5 272/6/5
f 279/6/5 273/6/5 278/6/5
f 280/6/5 277/6/5 276/6/5
f 281/6/5 277/6/5 280/6/5
f 286/6/5 283/6/5 282/6/5
f 287/6/5 283/6/5 286/6/5
f 288/6/5 285/6/5 284/6/5
f 289/6/5 285/6/5 288/6/5
f 294/3/5 291/3/5 290/3/5
f 295/3/5 291/3/5 294/3/5
f 298/6/5 293/6/5 292/6/5
f 299/6/5 293/6/5 298/6/5
f 300/6/5 297/6/5 296/6/5
f 301/6/5 297/6/5 300/6/5
f 302/11/6 303/11/6 306/11/6
f 306/11/6 303/11/6 307/11/6
f 304/11/6 305/11/6 308/11/6
f 308/11/6 305/11/6 309/11/6
f 306/1/6 307/1/6 310/1/6
f 310/1/6 307/1/6 311/1/6
f 308/1/6 309/1/6 312/1/6
f 312/1/6 309/1/6 313/1/6
f 314/3/6 315/3/6 316/3/6
f 316/3/6 315/3/6 317/3/6
f 317/3/6 315/3/6 318/3/6
f 319/3/6 320/3/6 321/3/6
f 321/3/6 320/3/6 322/3/6
f 323/6/6 324/6/6 327/6/6
f 327/6/6 324/6/6 328/6/6
f 325/6/6 326/6/6 329/6/6
f 329/6/6 326/6/6 330/6/6
f 331/6/6 332/6/6 335/6/6
f 335/6/6 332/6/6 336/6/6
f 333/6/6 334/6/6 337/6/6
f 337/6/6 334/6/6 338/6/6
f 339/6/6 340/6/6 343/6/6
f 343/6/6 340/6/6 344/6/6
f 341/6/6 342/6/6 345/6/6
f 345/6/6 342/6/6 346/6/6
f 347/6/6 348/6/6 349/6/6
f 349/6/6 348/6/6 350/6/6
