# MagicaVoxel @ Ephtracy

# group
g skeleton40x40x40

# material
mtllib skeleton40x40x40.mtl
usemtl palette

# normals
vn -1 0 0
vn 1 0 0
vn 0 0 1
vn 0 0 -1
vn 0 -1 0
vn 0 1 0

# texcoords
vt 0.306641 0.5
vt 0.876953 0.5
vt 0.880859 0.5
vt 0.908203 0.5

# verts
v -12 21 20
v -12 21 -10
v -12 25 20
v -12 25 -10
v -11 25 20
v -11 25 -10
v -11 26 20
v -11 26 -10
v -9 31 8
v -9 31 -1
v -9 32 8
v -9 32 -1
v -9 32 -2
v -9 35 8
v -9 35 -1
v -9 35 -2
v -9 36 8
v -9 36 -1
v -8 30 9
v -8 30 8
v -8 30 -10
v -8 31 9
v -8 31 8
v -8 31 -1
v -8 32 8
v -8 32 -1
v -8 32 -2
v -8 35 9
v -8 35 8
v -8 35 -1
v -8 35 -2
v -8 36 9
v -8 36 8
v -8 36 -1
v -8 38 8
v -8 38 -10
v -7 0 8
v -7 0 -10
v -7 21 7
v -7 21 6
v -7 21 -10
v -7 25 7
v -7 25 6
v -7 26 8
v -7 26 6
v -7 29 9
v -7 29 8
v -7 29 -10
v -7 30 9
v -7 30 8
v -7 30 -10
v -7 33 9
v -7 33 8
v -7 35 9
v -7 35 8
v -7 38 8
v -7 38 -10
v -7 39 8
v -7 39 -10
v -6 28 9
v -6 28 8
v -6 28 -10
v -6 29 9
v -6 29 8
v -6 29 -10
v -6 31 9
v -6 31 8
v -6 33 9
v -6 33 8
v -6 39 8
v -6 39 -10
v -6 40 8
v -6 40 -10
v -5 27 9
v -5 27 8
v -5 27 -10
v -5 28 9
v -5 28 8
v -5 28 -10
v -5 30 9
v -5 30 8
v -5 31 9
v -5 31 8
v -4 27 10
v -4 27 9
v -4 28 9
v -4 28 8
v -4 30 9
v -4 30 8
v -4 31 9
v -4 31 8
v -4 32 10
v -4 32 8
v -3 26 8
v -3 26 -10
v -3 27 8
v -3 27 -10
v -1 33 9
v -1 33 8
v -1 36 8
v -1 40 9
v -1 40 8
v 0 10 5
v 0 10 3
v 0 12 5
v 0 12 3
v 5 28 9
v 5 28 8
v 5 29 9
v 5 29 8
v 5 31 9
v 5 31 8
v 5 33 9
v 5 33 8
v 6 29 9
v 6 29 8
v 6 30 9
v 6 30 8
v 6 33 9
v 6 33 8
v 6 35 9
v 6 35 8
v 7 30 9
v 7 30 8
v 7 31 9
v 7 31 8
v 7 35 9
v 7 35 8
v 7 36 9
v 7 36 8
v 8 21 20
v 8 21 6
v 8 26 20
v 8 26 6
v -8 21 20
v -8 21 6
v -8 26 20
v -8 26 6
v -7 30 9
v -7 30 8
v -7 31 9
v -7 31 8
v -7 35 9
v -7 35 8
v -7 36 9
v -7 36 8
v -6 29 9
v -6 29 8
v -6 30 9
v -6 30 8
v -6 33 9
v -6 33 8
v -6 35 9
v -6 35 8
v -5 28 9
v -5 28 8
v -5 29 9
v -5 29 8
v -5 31 9
v -5 31 8
v -5 33 9
v -5 33 8
v -1 10 5
v -1 10 3
v -1 12 5
v -1 12 3
v 1 33 9
v 1 33 8
v 1 36 8
v 1 40 9
v 1 40 8
v 3 26 8
v 3 26 -10
v 3 27 8
v 3 27 -10
v 4 27 10
v 4 27 9
v 4 28 9
v 4 28 8
v 4 30 9
v 4 30 8
v 4 31 9
v 4 31 8
v 4 32 10
v 4 32 8
v 5 27 9
v 5 27 8
v 5 27 -10
v 5 28 9
v 5 28 8
v 5 28 -10
v 5 30 9
v 5 30 8
v 5 31 9
v 5 31 8
v 6 28 9
v 6 28 8
v 6 28 -10
v 6 29 9
v 6 29 8
v 6 29 -10
v 6 31 9
v 6 31 8
v 6 33 9
v 6 33 8
v 6 39 8
v 6 39 -10
v 6 40 8
v 6 40 -10
v 7 0 8
v 7 0 -10
v 7 21 7
v 7 21 6
v 7 21 -10
v 7 25 7
v 7 25 6
v 7 26 8
v 7 26 6
v 7 29 9
v 7 29 8
v 7 29 -10
v 7 30 9
v 7 30 8
v 7 30 -10
v 7 33 9
v 7 33 8
v 7 35 9
v 7 35 8
v 7 38 8
v 7 38 -10
v 7 39 8
v 7 39 -10
v 8 30 9
v 8 30 8
v 8 30 -10
v 8 31 9
v 8 31 8
v 8 31 -1
v 8 32 8
v 8 32 -1
v 8 32 -2
v 8 35 9
v 8 35 8
v 8 35 -1
v 8 35 -2
v 8 36 9
v 8 36 8
v 8 36 -1
v 8 38 8
v 8 38 -10
v 9 31 8
v 9 31 -1
v 9 32 8
v 9 32 -1
v 9 32 -2
v 9 35 8
v 9 35 -1
v 9 35 -2
v 9 36 8
v 9 36 -1
v 11 25 20
v 11 25 -10
v 11 26 20
v 11 26 -10
v 12 21 20
v 12 21 -10
v 12 25 20
v 12 25 -10
v -12 21 20
v -12 25 20
v -11 25 20
v -11 26 20
v -8 21 20
v -8 26 20
v 8 21 20
v 8 26 20
v 11 25 20
v 11 26 20
v 12 21 20
v 12 25 20
v -4 27 10
v -4 32 10
v 4 27 10
v 4 32 10
v -8 30 9
v -8 31 9
v -8 35 9
v -8 36 9
v -7 29 9
v -7 30 9
v -7 31 9
v -7 33 9
v -7 35 9
v -7 36 9
v -6 28 9
v -6 29 9
v -6 30 9
v -6 31 9
v -6 33 9
v -6 35 9
v -5 27 9
v -5 28 9
v -5 29 9
v -5 30 9
v -5 31 9
v -5 33 9
v -4 27 9
v -4 28 9
v -4 30 9
v -4 31 9
v -1 33 9
v -1 40 9
v 1 33 9
v 1 40 9
v 4 27 9
v 4 28 9
v 4 30 9
v 4 31 9
v 5 27 9
v 5 28 9
v 5 29 9
v 5 30 9
v 5 31 9
v 5 33 9
v 6 28 9
v 6 29 9
v 6 30 9
v 6 31 9
v 6 33 9
v 6 35 9
v 7 29 9
v 7 30 9
v 7 31 9
v 7 33 9
v 7 35 9
v 7 36 9
v 8 30 9
v 8 31 9
v 8 35 9
v 8 36 9
v -9 31 8
v -9 32 8
v -9 35 8
v -9 36 8
v -8 31 8
v -8 32 8
v -8 35 8
v -8 36 8
v -8 38 8
v -7 0 8
v -7 26 8
v -7 30 8
v -7 31 8
v -7 33 8
v -7 35 8
v -7 36 8
v -7 38 8
v -7 39 8
v -6 15 8
v -6 16 8
v -6 18 8
v -6 19 8
v -6 21 8
v -6 22 8
v -6 29 8
v -6 30 8
v -6 31 8
v -6 33 8
v -6 35 8
v -6 39 8
v -6 40 8
v -5 14 8
v -5 15 8
v -5 16 8
v -5 17 8
v -5 18 8
v -5 19 8
v -5 20 8
v -5 21 8
v -5 22 8
v -5 28 8
v -5 29 8
v -5 30 8
v -5 31 8
v -5 33 8
v -5 36 8
v -4 28 8
v -4 30 8
v -4 31 8
v -4 32 8
v -3 26 8
v -3 27 8
v -1 0 8
v -1 10 8
v -1 14 8
v -1 15 8
v -1 17 8
v -1 18 8
v -1 20 8
v -1 21 8
v -1 32 8
v -1 33 8
v -1 36 8
v -1 40 8
v 1 0 8
v 1 10 8
v 1 14 8
v 1 15 8
v 1 17 8
v 1 18 8
v 1 20 8
v 1 21 8
v 1 32 8
v 1 33 8
v 1 36 8
v 1 40 8
v 3 26 8
v 3 27 8
v 4 28 8
v 4 30 8
v 4 31 8
v 4 32 8
v 5 14 8
v 5 15 8
v 5 16 8
v 5 17 8
v 5 18 8
v 5 19 8
v 5 20 8
v 5 21 8
v 5 22 8
v 5 28 8
v 5 29 8
v 5 30 8
v 5 31 8
v 5 33 8
v 5 36 8
v 6 15 8
v 6 16 8
v 6 18 8
v 6 19 8
v 6 21 8
v 6 22 8
v 6 29 8
v 6 30 8
v 6 31 8
v 6 33 8
v 6 35 8
v 6 39 8
v 6 40 8
v 7 0 8
v 7 26 8
v 7 30 8
v 7 31 8
v 7 33 8
v 7 35 8
v 7 36 8
v 7 38 8
v 7 39 8
v 8 31 8
v 8 32 8
v 8 35 8
v 8 36 8
v 8 38 8
v 9 31 8
v 9 32 8
v 9 35 8
v 9 36 8
v -8 21 6
v -8 26 6
v -7 21 6
v -7 25 6
v -7 26 6
v 7 21 6
v 7 25 6
v 7 26 6
v 8 21 6
v 8 26 6
v -1 10 3
v -1 12 3
v 0 10 3
v 0 12 3
v -9 32 -1
v -9 35 -1
v -8 32 -1
v -8 35 -1
v 8 32 -1
v 8 35 -1
v 9 32 -1
v 9 35 -1
v -1 10 5
v -1 12 5
v 0 10 5
v 0 12 5
v -9 31 -1
v -9 32 -1
v -9 35 -1
v -9 36 -1
v -8 31 -1
v -8 32 -1
v -8 35 -1
v -8 36 -1
v 8 31 -1
v 8 32 -1
v 8 35 -1
v 8 36 -1
v 9 31 -1
v 9 32 -1
v 9 35 -1
v 9 36 -1
v -9 32 -2
v -9 35 -2
v -8 32 -2
v -8 35 -2
v 8 32 -2
v 8 35 -2
v 9 32 -2
v 9 35 -2
v -12 21 -10
v -12 25 -10
v -11 25 -10
v -11 26 -10
v -8 30 -10
v -8 38 -10
v -7 0 -10
v -7 21 -10
v -7 29 -10
v -7 30 -10
v -7 38 -10
v -7 39 -10
v -6 28 -10
v -6 29 -10
v -6 39 -10
v -6 40 -10
v -5 27 -10
v -5 28 -10
v -3 26 -10
v -3 27 -10
v -1 0 -10
v -1 12 -10
v 1 0 -10
v 1 12 -10
v 3 26 -10
v 3 27 -10
v 5 27 -10
v 5 28 -10
v 6 28 -10
v 6 29 -10
v 6 39 -10
v 6 40 -10
v 7 0 -10
v 7 21 -10
v 7 29 -10
v 7 30 -10
v 7 38 -10
v 7 39 -10
v 8 30 -10
v 8 38 -10
v 11 25 -10
v 11 26 -10
v 12 21 -10
v 12 25 -10
v -7 0 8
v -1 0 8
v 1 0 8
v 7 0 8
v -7 0 -10
v -1 0 -10
v 1 0 -10
v 7 0 -10
v -1 12 5
v 0 12 5
v -1 12 3
v 0 12 3
v -12 21 20
v -8 21 20
v 8 21 20
v 12 21 20
v -8 21 6
v -7 21 6
v 7 21 6
v 8 21 6
v -12 21 -10
v -7 21 -10
v 7 21 -10
v 12 21 -10
v -4 27 10
v 4 27 10
v -5 27 9
v -4 27 9
v 4 27 9
v 5 27 9
v -5 27 8
v -3 27 8
v 3 27 8
v 5 27 8
v -5 27 -10
v -3 27 -10
v 3 27 -10
v 5 27 -10
v -6 28 9
v -5 28 9
v 5 28 9
v 6 28 9
v -6 28 8
v -5 28 8
v 5 28 8
v 6 28 8
v -6 28 -10
v -5 28 -10
v 5 28 -10
v 6 28 -10
v -7 29 9
v -6 29 9
v 6 29 9
v 7 29 9
v -7 29 8
v -6 29 8
v 6 29 8
v 7 29 8
v -7 29 -10
v -6 29 -10
v 6 29 -10
v 7 29 -10
v -8 30 9
v -7 30 9
v -5 30 9
v -4 30 9
v 4 30 9
v 5 30 9
v 7 30 9
v 8 30 9
v -8 30 8
v -7 30 8
v -5 30 8
v -4 30 8
v 4 30 8
v 5 30 8
v 7 30 8
v 8 30 8
v -8 30 -10
v -7 30 -10
v 7 30 -10
v 8 30 -10
v -6 31 9
v -5 31 9
v 5 31 9
v 6 31 9
v -9 31 8
v -8 31 8
v -6 31 8
v -5 31 8
v 5 31 8
v 6 31 8
v 8 31 8
v 9 31 8
v -9 31 -1
v -8 31 -1
v 8 31 -1
v 9 31 -1
v -9 32 -1
v -8 32 -1
v 8 32 -1
v 9 32 -1
v -9 32 -2
v -8 32 -2
v 8 32 -2
v 9 32 -2
v -7 33 9
v -6 33 9
v -1 33 9
v 1 33 9
v 6 33 9
v 7 33 9
v -7 33 8
v -6 33 8
v -1 33 8
v 1 33 8
v 6 33 8
v 7 33 8
v -8 35 9
v -7 35 9
v 7 35 9
v 8 35 9
v -9 35 8
v -8 35 8
v -7 35 8
v 7 35 8
v 8 35 8
v 9 35 8
v -9 35 -1
v -8 35 -1
v 8 35 -1
v 9 35 -1
v -1 10 5
v 0 10 5
v -1 10 3
v 0 10 3
v -12 25 20
v -11 25 20
v 11 25 20
v 12 25 20
v -12 25 -10
v -11 25 -10
v 11 25 -10
v 12 25 -10
v -11 26 20
v -8 26 20
v 8 26 20
v 11 26 20
v -7 26 8
v -3 26 8
v 3 26 8
v 7 26 8
v -8 26 6
v -7 26 6
v 7 26 6
v 8 26 6
v -11 26 -10
v -3 26 -10
v 3 26 -10
v 11 26 -10
v -5 28 9
v -4 28 9
v 4 28 9
v 5 28 9
v -5 28 8
v -4 28 8
v 4 28 8
v 5 28 8
v -6 29 9
v -5 29 9
v 5 29 9
v 6 29 9
v -6 29 8
v -5 29 8
v 5 29 8
v 6 29 8
v -7 30 9
v -6 30 9
v 6 30 9
v 7 30 9
v -7 30 8
v -6 30 8
v 6 30 8
v 7 30 8
v -8 31 9
v -7 31 9
v -5 31 9
v -4 31 9
v 4 31 9
v 5 31 9
v 7 31 9
v 8 31 9
v -8 31 8
v -7 31 8
v -5 31 8
v -4 31 8
v 4 31 8
v 5 31 8
v 7 31 8
v 8 31 8
v -4 32 10
v 4 32 10
v -9 32 8
v -8 32 8
v -4 32 8
v -1 32 8
v 1 32 8
v 4 32 8
v 8 32 8
v 9 32 8
v -9 32 -1
v -8 32 -1
v 8 32 -1
v 9 32 -1
v -6 33 9
v -5 33 9
v 5 33 9
v 6 33 9
v -6 33 8
v -5 33 8
v 5 33 8
v 6 33 8
v -7 35 9
v -6 35 9
v 6 35 9
v 7 35 9
v -7 35 8
v -6 35 8
v 6 35 8
v 7 35 8
v -9 35 -1
v -8 35 -1
v 8 35 -1
v 9 35 -1
v -9 35 -2
v -8 35 -2
v 8 35 -2
v 9 35 -2
v -8 36 9
v -7 36 9
v 7 36 9
v 8 36 9
v -9 36 8
v -8 36 8
v -7 36 8
v 7 36 8
v 8 36 8
v 9 36 8
v -9 36 -1
v -8 36 -1
v 8 36 -1
v 9 36 -1
v -8 38 8
v -7 38 8
v 7 38 8
v 8 38 8
v -8 38 -10
v -7 38 -10
v 7 38 -10
v 8 38 -10
v -7 39 8
v -6 39 8
v 6 39 8
v 7 39 8
v -7 39 -10
v -6 39 -10
v 6 39 -10
v 7 39 -10
v -1 40 9
v 1 40 9
v -6 40 8
v -1 40 8
v 1 40 8
v 6 40 8
v -6 40 -10
v 6 40 -10

# faces
f 3/2/1 2/2/1 1/2/1
f 4/2/1 2/2/1 3/2/1
f 7/2/1 6/2/1 5/2/1
f 8/2/1 6/2/1 7/2/1
f 11/3/1 10/3/1 9/3/1
f 12/3/1 10/3/1 11/3/1
f 15/3/1 13/3/1 12/3/1
f 16/3/1 13/3/1 15/3/1
f 17/3/1 15/3/1 14/3/1
f 18/3/1 15/3/1 17/3/1
f 22/3/1 20/3/1 19/3/1
f 23/2/1 21/2/1 20/2/1
f 23/3/1 20/3/1 22/3/1
f 24/2/1 21/2/1 23/2/1
f 26/2/1 21/2/1 24/2/1
f 27/2/1 21/2/1 26/2/1
f 29/2/1 26/2/1 25/2/1
f 30/2/1 26/2/1 29/2/1
f 31/2/1 21/2/1 27/2/1
f 32/3/1 29/3/1 28/3/1
f 33/3/1 29/3/1 32/3/1
f 34/2/1 31/2/1 30/2/1
f 35/2/1 34/2/1 33/2/1
f 36/2/1 31/2/1 34/2/1
f 36/2/1 34/2/1 35/2/1
f 36/2/1 21/2/1 31/2/1
f 39/2/1 38/2/1 37/2/1
f 40/2/1 38/2/1 39/2/1
f 41/2/1 38/2/1 40/2/1
f 42/2/1 39/2/1 37/2/1
f 42/1/1 40/1/1 39/1/1
f 43/1/1 40/1/1 42/1/1
f 44/2/1 42/2/1 37/2/1
f 44/2/1 43/2/1 42/2/1
f 45/2/1 43/2/1 44/2/1
f 49/3/1 47/3/1 46/3/1
f 50/2/1 48/2/1 47/2/1
f 50/3/1 47/3/1 49/3/1
f 51/2/1 48/2/1 50/2/1
f 54/3/1 53/3/1 52/3/1
f 55/3/1 53/3/1 54/3/1
f 58/2/1 57/2/1 56/2/1
f 59/2/1 57/2/1 58/2/1
f 63/3/1 61/3/1 60/3/1
f 64/2/1 62/2/1 61/2/1
f 64/3/1 61/3/1 63/3/1
f 65/2/1 62/2/1 64/2/1
f 68/3/1 67/3/1 66/3/1
f 69/3/1 67/3/1 68/3/1
f 72/2/1 71/2/1 70/2/1
f 73/2/1 71/2/1 72/2/1
f 77/3/1 75/3/1 74/3/1
f 78/2/1 76/2/1 75/2/1
f 78/3/1 75/3/1 77/3/1
f 79/2/1 76/2/1 78/2/1
f 82/3/1 81/3/1 80/3/1
f 83/3/1 81/3/1 82/3/1
f 86/3/1 85/3/1 84/3/1
f 88/3/1 86/3/1 84/3/1
f 88/3/1 87/3/1 86/3/1
f 89/3/1 87/3/1 88/3/1
f 90/3/1 88/3/1 84/3/1
f 92/3/1 90/3/1 84/3/1
f 92/3/1 91/3/1 90/3/1
f 93/3/1 91/3/1 92/3/1
f 96/2/1 95/2/1 94/2/1
f 97/2/1 95/2/1 96/2/1
f 100/2/1 99/2/1 98/2/1
f 101/2/1 100/2/1 98/2/1
f 102/2/1 100/2/1 101/2/1
f 105/4/1 104/4/1 103/4/1
f 106/4/1 104/4/1 105/4/1
f 109/3/1 108/3/1 107/3/1
f 110/3/1 108/3/1 109/3/1
f 113/3/1 112/3/1 111/3/1
f 114/3/1 112/3/1 113/3/1
f 117/3/1 116/3/1 115/3/1
f 118/3/1 116/3/1 117/3/1
f 121/3/1 120/3/1 119/3/1
f 122/3/1 120/3/1 121/3/1
f 125/3/1 124/3/1 123/3/1
f 126/3/1 124/3/1 125/3/1
f 129/3/1 128/3/1 127/3/1
f 130/3/1 128/3/1 129/3/1
f 133/2/1 132/2/1 131/2/1
f 134/2/1 132/2/1 133/2/1
f 135/2/2 136/2/2 137/2/2
f 137/2/2 136/2/2 138/2/2
f 139/3/2 140/3/2 141/3/2
f 141/3/2 140/3/2 142/3/2
f 143/3/2 144/3/2 145/3/2
f 145/3/2 144/3/2 146/3/2
f 147/3/2 148/3/2 149/3/2
f 149/3/2 148/3/2 150/3/2
f 151/3/2 152/3/2 153/3/2
f 153/3/2 152/3/2 154/3/2
f 155/3/2 156/3/2 157/3/2
f 157/3/2 156/3/2 158/3/2
f 159/3/2 160/3/2 161/3/2
f 161/3/2 160/3/2 162/3/2
f 163/2/2 164/2/2 165/2/2
f 165/2/2 164/2/2 166/2/2
f 167/2/2 168/2/2 169/2/2
f 167/2/2 169/2/2 170/2/2
f 170/2/2 169/2/2 171/2/2
f 172/2/2 173/2/2 174/2/2
f 174/2/2 173/2/2 175/2/2
f 176/3/2 177/3/2 178/3/2
f 176/3/2 178/3/2 180/3/2
f 178/3/2 179/3/2 180/3/2
f 180/3/2 179/3/2 181/3/2
f 176/3/2 180/3/2 182/3/2
f 176/3/2 182/3/2 184/3/2
f 182/3/2 183/3/2 184/3/2
f 184/3/2 183/3/2 185/3/2
f 186/3/2 187/3/2 189/3/2
f 187/2/2 188/2/2 190/2/2
f 189/3/2 187/3/2 190/3/2
f 190/2/2 188/2/2 191/2/2
f 192/3/2 193/3/2 194/3/2
f 194/3/2 193/3/2 195/3/2
f 196/3/2 197/3/2 199/3/2
f 197/2/2 198/2/2 200/2/2
f 199/3/2 197/3/2 200/3/2
f 200/2/2 198/2/2 201/2/2
f 202/3/2 203/3/2 204/3/2
f 204/3/2 203/3/2 205/3/2
f 206/2/2 207/2/2 208/2/2
f 208/2/2 207/2/2 209/2/2
f 210/2/2 211/2/2 212/2/2
f 212/2/2 211/2/2 213/2/2
f 213/2/2 211/2/2 214/2/2
f 210/2/2 212/2/2 215/2/2
f 212/1/2 213/1/2 215/1/2
f 215/1/2 213/1/2 216/1/2
f 210/2/2 215/2/2 217/2/2
f 215/2/2 216/2/2 217/2/2
f 217/2/2 216/2/2 218/2/2
f 219/3/2 220/3/2 222/3/2
f 220/2/2 221/2/2 223/2/2
f 222/3/2 220/3/2 223/3/2
f 223/2/2 221/2/2 224/2/2
f 225/3/2 226/3/2 227/3/2
f 227/3/2 226/3/2 228/3/2
f 229/2/2 230/2/2 231/2/2
f 231/2/2 230/2/2 232/2/2
f 233/3/2 234/3/2 236/3/2
f 234/2/2 235/2/2 237/2/2
f 236/3/2 234/3/2 237/3/2
f 237/2/2 235/2/2 238/2/2
f 238/2/2 235/2/2 240/2/2
f 240/2/2 235/2/2 241/2/2
f 239/2/2 240/2/2 243/2/2
f 243/2/2 240/2/2 244/2/2
f 241/2/2 235/2/2 245/2/2
f 242/3/2 243/3/2 246/3/2
f 246/3/2 243/3/2 247/3/2
f 244/2/2 245/2/2 248/2/2
f 247/2/2 248/2/2 249/2/2
f 248/2/2 245/2/2 250/2/2
f 249/2/2 248/2/2 250/2/2
f 245/2/2 235/2/2 250/2/2
f 251/3/2 252/3/2 253/3/2
f 253/3/2 252/3/2 254/3/2
f 254/3/2 255/3/2 257/3/2
f 257/3/2 255/3/2 258/3/2
f 256/3/2 257/3/2 259/3/2
f 259/3/2 257/3/2 260/3/2
f 261/2/2 262/2/2 263/2/2
f 263/2/2 262/2/2 264/2/2
f 265/2/2 266/2/2 267/2/2
f 267/2/2 266/2/2 268/2/2
f 271/2/3 270/2/3 269/2/3
f 273/2/3 271/2/3 269/2/3
f 273/2/3 272/2/3 271/2/3
f 274/2/3 272/2/3 273/2/3
f 277/2/3 276/2/3 275/2/3
f 278/2/3 276/2/3 277/2/3
f 279/2/3 277/2/3 275/2/3
f 280/2/3 277/2/3 279/2/3
f 283/3/3 282/3/3 281/3/3
f 284/3/3 282/3/3 283/3/3
f 290/3/3 286/3/3 285/3/3
f 291/3/3 286/3/3 290/3/3
f 293/3/3 288/3/3 287/3/3
f 294/3/3 288/3/3 293/3/3
f 296/3/3 290/3/3 289/3/3
f 297/3/3 290/3/3 296/3/3
f 299/3/3 293/3/3 292/3/3
f 300/3/3 293/3/3 299/3/3
f 302/3/3 296/3/3 295/3/3
f 303/3/3 296/3/3 302/3/3
f 305/3/3 299/3/3 298/3/3
f 306/3/3 299/3/3 305/3/3
f 307/3/3 302/3/3 301/3/3
f 308/3/3 302/3/3 307/3/3
f 309/3/3 305/3/3 304/3/3
f 310/3/3 305/3/3 309/3/3
f 313/2/3 312/2/3 311/2/3
f 314/2/3 312/2/3 313/2/3
f 319/3/3 316/3/3 315/3/3
f 320/3/3 316/3/3 319/3/3
f 322/3/3 318/3/3 317/3/3
f 323/3/3 318/3/3 322/3/3
f 325/3/3 321/3/3 320/3/3
f 326/3/3 321/3/3 325/3/3
f 328/3/3 324/3/3 323/3/3
f 329/3/3 324/3/3 328/3/3
f 331/3/3 327/3/3 326/3/3
f 332/3/3 327/3/3 331/3/3
f 334/3/3 330/3/3 329/3/3
f 335/3/3 330/3/3 334/3/3
f 337/3/3 333/3/3 332/3/3
f 338/3/3 333/3/3 337/3/3
f 339/3/3 336/3/3 335/3/3
f 340/3/3 336/3/3 339/3/3
f 345/3/3 342/3/3 341/3/3
f 346/3/3 342/3/3 345/3/3
f 347/3/3 344/3/3 343/3/3
f 348/3/3 344/3/3 347/3/3
f 353/2/3 346/2/3 345/2/3
f 353/2/3 347/2/3 346/2/3
f 354/2/3 347/2/3 353/2/3
f 355/2/3 347/2/3 354/2/3
f 356/2/3 349/2/3 348/2/3
f 357/2/3 349/2/3 356/2/3
f 359/2/3 351/2/3 350/2/3
f 360/2/3 351/2/3 359/2/3
f 361/2/3 351/2/3 360/2/3
f 362/2/3 351/2/3 361/2/3
f 363/2/3 351/2/3 362/2/3
f 364/2/3 351/2/3 363/2/3
f 366/2/3 353/2/3 352/2/3
f 366/2/3 354/2/3 353/2/3
f 367/2/3 354/2/3 366/2/3
f 368/2/3 354/2/3 367/2/3
f 369/2/3 358/2/3 357/2/3
f 369/2/3 357/2/3 356/2/3
f 369/2/3 356/2/3 355/2/3
f 370/2/3 358/2/3 369/2/3
f 372/2/3 359/2/3 350/2/3
f 373/4/3 360/4/3 359/4/3
f 373/2/3 359/2/3 372/2/3
f 374/2/3 361/2/3 360/2/3
f 374/4/3 360/4/3 373/4/3
f 375/2/3 361/2/3 374/2/3
f 376/4/3 362/4/3 361/4/3
f 376/2/3 361/2/3 375/2/3
f 377/2/3 363/2/3 362/2/3
f 377/4/3 362/4/3 376/4/3
f 378/2/3 363/2/3 377/2/3
f 379/4/3 364/4/3 363/4/3
f 379/2/3 363/2/3 378/2/3
f 380/2/3 351/2/3 364/2/3
f 380/4/3 364/4/3 379/4/3
f 382/2/3 367/2/3 366/2/3
f 382/2/3 366/2/3 365/2/3
f 383/2/3 367/2/3 382/2/3
f 384/2/3 367/2/3 383/2/3
f 385/2/3 371/2/3 370/2/3
f 385/2/3 370/2/3 369/2/3
f 385/2/3 369/2/3 368/2/3
f 386/2/3 371/2/3 385/2/3
f 387/2/3 383/2/3 382/2/3
f 387/2/3 382/2/3 381/2/3
f 388/2/3 383/2/3 387/2/3
f 389/2/3 385/2/3 384/2/3
f 390/2/3 385/2/3 389/2/3
f 391/2/3 351/2/3 380/2/3
f 391/2/3 380/2/3 379/2/3
f 393/2/3 372/2/3 350/2/3
f 394/2/3 372/2/3 393/2/3
f 395/4/3 373/4/3 372/4/3
f 395/2/3 372/2/3 394/2/3
f 396/2/3 375/2/3 374/2/3
f 396/4/3 373/4/3 395/4/3
f 396/2/3 374/2/3 373/2/3
f 397/4/3 376/4/3 375/4/3
f 397/2/3 375/2/3 396/2/3
f 398/2/3 378/2/3 377/2/3
f 398/4/3 376/4/3 397/4/3
f 398/2/3 377/2/3 376/2/3
f 399/4/3 379/4/3 378/4/3
f 399/2/3 378/2/3 398/2/3
f 400/2/3 392/2/3 391/2/3
f 400/4/3 379/4/3 399/4/3
f 400/2/3 391/2/3 379/2/3
f 401/2/3 385/2/3 390/2/3
f 402/4/3 386/4/3 385/4/3
f 402/2/3 385/2/3 401/2/3
f 403/2/3 371/2/3 386/2/3
f 403/4/3 386/4/3 402/4/3
f 404/2/3 371/2/3 403/2/3
f 405/4/3 394/4/3 393/4/3
f 406/2/3 398/2/3 397/2/3
f 406/4/3 394/4/3 405/4/3
f 406/2/3 397/2/3 396/2/3
f 406/2/3 400/2/3 399/2/3
f 406/2/3 399/2/3 398/2/3
f 406/2/3 395/2/3 394/2/3
f 406/2/3 396/2/3 395/2/3
f 407/2/3 400/2/3 406/2/3
f 408/2/3 400/2/3 407/2/3
f 409/2/3 400/2/3 408/2/3
f 410/2/3 400/2/3 409/2/3
f 411/2/3 400/2/3 410/2/3
f 412/2/3 392/2/3 400/2/3
f 412/2/3 400/2/3 411/2/3
f 413/4/3 402/4/3 401/4/3
f 414/4/3 402/4/3 413/4/3
f 417/2/3 392/2/3 412/2/3
f 418/2/3 392/2/3 417/2/3
f 422/2/3 414/2/3 413/2/3
f 423/2/3 406/2/3 405/2/3
f 423/2/3 407/2/3 406/2/3
f 423/4/3 408/4/3 407/4/3
f 424/2/3 409/2/3 408/2/3
f 424/4/3 408/4/3 423/4/3
f 425/2/3 409/2/3 424/2/3
f 426/4/3 410/4/3 409/4/3
f 426/2/3 409/2/3 425/2/3
f 427/2/3 411/2/3 410/2/3
f 427/4/3 410/4/3 426/4/3
f 428/2/3 411/2/3 427/2/3
f 429/4/3 412/4/3 411/4/3
f 429/2/3 411/2/3 428/2/3
f 430/2/3 417/2/3 412/2/3
f 430/4/3 412/4/3 429/4/3
f 431/2/3 417/2/3 430/2/3
f 432/2/3 420/2/3 419/2/3
f 433/2/3 420/2/3 432/2/3
f 434/2/3 420/2/3 433/2/3
f 435/2/3 422/2/3 421/2/3
f 436/2/3 414/2/3 422/2/3
f 436/4/3 415/4/3 414/4/3
f 436/2/3 422/2/3 435/2/3
f 437/2/3 416/2/3 415/2/3
f 437/4/3 415/4/3 436/4/3
f 438/4/3 425/4/3 424/4/3
f 438/2/3 424/2/3 423/2/3
f 439/2/3 426/2/3 425/2/3
f 439/4/3 425/4/3 438/4/3
f 439/2/3 427/2/3 426/2/3
f 440/4/3 428/4/3 427/4/3
f 440/2/3 427/2/3 439/2/3
f 441/2/3 429/2/3 428/2/3
f 441/4/3 428/4/3 440/4/3
f 441/2/3 430/2/3 429/2/3
f 442/4/3 431/4/3 430/4/3
f 442/2/3 430/2/3 441/2/3
f 443/2/3 417/2/3 431/2/3
f 443/4/3 431/4/3 442/4/3
f 444/2/3 434/2/3 433/2/3
f 444/2/3 435/2/3 434/2/3
f 445/2/3 435/2/3 444/2/3
f 446/2/3 435/2/3 445/2/3
f 447/2/3 437/2/3 436/2/3
f 448/2/3 437/2/3 447/2/3
f 449/2/3 416/2/3 437/2/3
f 449/2/3 437/2/3 448/2/3
f 450/2/3 416/2/3 449/2/3
f 451/2/3 438/2/3 423/2/3
f 451/2/3 443/2/3 442/2/3
f 451/2/3 423/2/3 405/2/3
f 451/2/3 439/2/3 438/2/3
f 451/2/3 442/2/3 441/2/3
f 451/2/3 441/2/3 440/2/3
f 451/2/3 440/2/3 439/2/3
f 452/2/3 417/2/3 443/2/3
f 452/2/3 443/2/3 451/2/3
f 453/2/3 447/2/3 446/2/3
f 453/2/3 446/2/3 445/2/3
f 454/2/3 447/2/3 453/2/3
f 455/2/3 447/2/3 454/2/3
f 456/2/3 449/2/3 448/2/3
f 457/2/3 449/2/3 456/2/3
f 458/2/3 449/2/3 457/2/3
f 459/2/3 449/2/3 458/2/3
f 460/2/3 455/2/3 454/2/3
f 460/2/3 456/2/3 455/2/3
f 461/2/3 456/2/3 460/2/3
f 462/2/3 456/2/3 461/2/3
f 463/2/3 458/2/3 457/2/3
f 464/2/3 458/2/3 463/2/3
f 465/3/3 461/3/3 460/3/3
f 466/3/3 461/3/3 465/3/3
f 467/3/3 463/3/3 462/3/3
f 468/3/3 463/3/3 467/3/3
f 471/2/3 470/2/3 469/2/3
f 472/2/3 470/2/3 471/2/3
f 473/2/3 470/2/3 472/2/3
f 477/2/3 475/2/3 474/2/3
f 477/2/3 476/2/3 475/2/3
f 478/2/3 476/2/3 477/2/3
f 481/4/3 480/4/3 479/4/3
f 482/4/3 480/4/3 481/4/3
f 485/3/3 484/3/3 483/3/3
f 486/3/3 484/3/3 485/3/3
f 489/3/3 488/3/3 487/3/3
f 490/3/3 488/3/3 489/3/3
f 491/4/4 492/4/4 493/4/4
f 493/4/4 492/4/4 494/4/4
f 495/3/4 496/3/4 499/3/4
f 499/3/4 496/3/4 500/3/4
f 497/3/4 498/3/4 501/3/4
f 501/3/4 498/3/4 502/3/4
f 503/3/4 504/3/4 507/3/4
f 507/3/4 504/3/4 508/3/4
f 505/3/4 506/3/4 509/3/4
f 509/3/4 506/3/4 510/3/4
f 511/3/4 512/3/4 513/3/4
f 513/3/4 512/3/4 514/3/4
f 515/3/4 516/3/4 517/3/4
f 517/3/4 516/3/4 518/3/4
f 519/2/4 520/2/4 521/2/4
f 519/2/4 521/2/4 526/2/4
f 521/2/4 522/2/4 526/2/4
f 523/2/4 524/2/4 528/2/4
f 528/2/4 524/2/4 529/2/4
f 527/2/4 528/2/4 532/2/4
f 529/2/4 530/2/4 532/2/4
f 528/2/4 529/2/4 532/2/4
f 532/2/4 530/2/4 533/2/4
f 531/2/4 532/2/4 536/2/4
f 533/2/4 534/2/4 536/2/4
f 532/2/4 533/2/4 536/2/4
f 525/2/4 526/2/4 537/2/4
f 526/2/4 522/2/4 537/2/4
f 535/2/4 536/2/4 538/2/4
f 525/2/4 537/2/4 539/2/4
f 537/2/4 538/2/4 539/2/4
f 539/2/4 538/2/4 540/2/4
f 539/4/4 540/4/4 541/4/4
f 540/2/4 538/2/4 542/2/4
f 541/4/4 540/4/4 542/4/4
f 541/2/4 542/2/4 543/2/4
f 542/2/4 538/2/4 543/2/4
f 538/2/4 536/2/4 544/2/4
f 543/2/4 538/2/4 544/2/4
f 544/2/4 536/2/4 545/2/4
f 536/2/4 534/2/4 546/2/4
f 545/2/4 536/2/4 546/2/4
f 546/2/4 534/2/4 547/2/4
f 547/2/4 534/2/4 548/2/4
f 548/2/4 534/2/4 549/2/4
f 549/2/4 534/2/4 550/2/4
f 541/2/4 543/2/4 551/2/4
f 551/2/4 543/2/4 552/2/4
f 548/2/4 549/2/4 553/2/4
f 553/2/4 549/2/4 554/2/4
f 554/2/4 549/2/4 555/2/4
f 555/2/4 549/2/4 556/2/4
f 554/2/4 555/2/4 557/2/4
f 557/2/4 555/2/4 558/2/4
f 552/2/4 543/2/4 559/2/4
f 559/2/4 543/2/4 560/2/4
f 552/2/4 559/2/4 561/2/4
f 561/2/4 559/2/4 562/2/4
f 567/2/5 564/2/5 563/2/5
f 568/4/5 565/4/5 564/4/5
f 568/2/5 564/2/5 567/2/5
f 569/2/5 566/2/5 565/2/5
f 569/4/5 565/4/5 568/4/5
f 570/2/5 566/2/5 569/2/5
f 573/1/5 572/1/5 571/1/5
f 574/1/5 572/1/5 573/1/5
f 579/2/5 576/2/5 575/2/5
f 582/2/5 578/2/5 577/2/5
f 583/2/5 580/2/5 579/2/5
f 583/2/5 579/2/5 575/2/5
f 584/2/5 580/2/5 583/2/5
f 585/2/5 582/2/5 581/2/5
f 586/2/5 578/2/5 582/2/5
f 586/2/5 582/2/5 585/2/5
f 590/3/5 588/3/5 587/3/5
f 591/3/5 588/3/5 590/3/5
f 593/3/5 590/3/5 589/3/5
f 593/3/5 592/3/5 591/3/5
f 593/3/5 591/3/5 590/3/5
f 594/3/5 592/3/5 593/3/5
f 595/3/5 592/3/5 594/3/5
f 596/3/5 592/3/5 595/3/5
f 597/2/5 594/2/5 593/2/5
f 598/2/5 594/2/5 597/2/5
f 599/2/5 596/2/5 595/2/5
f 600/2/5 596/2/5 599/2/5
f 605/3/5 602/3/5 601/3/5
f 606/3/5 602/3/5 605/3/5
f 607/3/5 604/3/5 603/3/5
f 608/3/5 604/3/5 607/3/5
f 609/2/5 606/2/5 605/2/5
f 610/2/5 606/2/5 609/2/5
f 611/2/5 608/2/5 607/2/5
f 612/2/5 608/2/5 611/2/5
f 617/3/5 614/3/5 613/3/5
f 618/3/5 614/3/5 617/3/5
f 619/3/5 616/3/5 615/3/5
f 620/3/5 616/3/5 619/3/5
f 621/2/5 618/2/5 617/2/5
f 622/2/5 618/2/5 621/2/5
f 623/2/5 620/2/5 619/2/5
f 624/2/5 620/2/5 623/2/5
f 633/3/5 626/3/5 625/3/5
f 634/3/5 626/3/5 633/3/5
f 635/3/5 628/3/5 627/3/5
f 636/3/5 628/3/5 635/3/5
f 637/3/5 630/3/5 629/3/5
f 638/3/5 630/3/5 637/3/5
f 639/3/5 632/3/5 631/3/5
f 640/3/5 632/3/5 639/3/5
f 641/2/5 634/2/5 633/2/5
f 642/2/5 634/2/5 641/2/5
f 643/2/5 640/2/5 639/2/5
f 644/2/5 640/2/5 643/2/5
f 651/3/5 646/3/5 645/3/5
f 652/3/5 646/3/5 651/3/5
f 653/3/5 648/3/5 647/3/5
f 654/3/5 648/3/5 653/3/5
f 657/3/5 650/3/5 649/3/5
f 658/3/5 650/3/5 657/3/5
f 659/3/5 656/3/5 655/3/5
f 660/3/5 656/3/5 659/3/5
f 665/3/5 662/3/5 661/3/5
f 666/3/5 662/3/5 665/3/5
f 667/3/5 664/3/5 663/3/5
f 668/3/5 664/3/5 667/3/5
f 675/3/5 670/3/5 669/3/5
f 676/3/5 670/3/5 675/3/5
f 677/2/5 672/2/5 671/2/5
f 678/2/5 672/2/5 677/2/5
f 679/3/5 674/3/5 673/3/5
f 680/3/5 674/3/5 679/3/5
f 686/3/5 682/3/5 681/3/5
f 687/3/5 682/3/5 686/3/5
f 688/3/5 684/3/5 683/3/5
f 689/3/5 684/3/5 688/3/5
f 691/3/5 686/3/5 685/3/5
f 692/3/5 686/3/5 691/3/5
f 693/3/5 690/3/5 689/3/5
f 694/3/5 690/3/5 693/3/5
f 695/4/6 696/4/6 697/4/6
f 697/4/6 696/4/6 698/4/6
f 699/2/6 700/2/6 703/2/6
f 703/2/6 700/2/6 704/2/6
f 701/2/6 702/2/6 705/2/6
f 705/2/6 702/2/6 706/2/6
f 707/2/6 708/2/6 715/2/6
f 711/2/6 712/2/6 716/2/6
f 713/2/6 714/2/6 717/2/6
f 709/2/6 710/2/6 718/2/6
f 715/2/6 716/2/6 719/2/6
f 707/2/6 715/2/6 719/2/6
f 716/2/6 712/2/6 720/2/6
f 719/2/6 716/2/6 720/2/6
f 717/2/6 718/2/6 721/2/6
f 713/2/6 717/2/6 721/2/6
f 718/2/6 710/2/6 722/2/6
f 721/2/6 718/2/6 722/2/6
f 723/3/6 724/3/6 727/3/6
f 727/3/6 724/3/6 728/3/6
f 725/3/6 726/3/6 729/3/6
f 729/3/6 726/3/6 730/3/6
f 731/3/6 732/3/6 735/3/6
f 735/3/6 732/3/6 736/3/6
f 733/3/6 734/3/6 737/3/6
f 737/3/6 734/3/6 738/3/6
f 739/3/6 740/3/6 743/3/6
f 743/3/6 740/3/6 744/3/6
f 741/3/6 742/3/6 745/3/6
f 745/3/6 742/3/6 746/3/6
f 747/3/6 748/3/6 755/3/6
f 755/3/6 748/3/6 756/3/6
f 749/3/6 750/3/6 757/3/6
f 757/3/6 750/3/6 758/3/6
f 751/3/6 752/3/6 759/3/6
f 759/3/6 752/3/6 760/3/6
f 753/3/6 754/3/6 761/3/6
f 761/3/6 754/3/6 762/3/6
f 763/3/6 764/3/6 767/3/6
f 767/3/6 764/3/6 768/3/6
f 768/3/6 764/3/6 769/3/6
f 769/3/6 764/3/6 770/3/6
f 765/3/6 766/3/6 773/3/6
f 773/3/6 766/3/6 774/3/6
f 771/3/6 772/3/6 775/3/6
f 775/3/6 772/3/6 776/3/6
f 777/3/6 778/3/6 781/3/6
f 781/3/6 778/3/6 782/3/6
f 779/3/6 780/3/6 783/3/6
f 783/3/6 780/3/6 784/3/6
f 785/3/6 786/3/6 789/3/6
f 789/3/6 786/3/6 790/3/6
f 787/3/6 788/3/6 791/3/6
f 791/3/6 788/3/6 792/3/6
f 793/3/6 794/3/6 797/3/6
f 797/3/6 794/3/6 798/3/6
f 795/3/6 796/3/6 799/3/6
f 799/3/6 796/3/6 800/3/6
f 801/3/6 802/3/6 806/3/6
f 806/3/6 802/3/6 807/3/6
f 803/3/6 804/3/6 808/3/6
f 808/3/6 804/3/6 809/3/6
f 805/3/6 806/3/6 811/3/6
f 811/3/6 806/3/6 812/3/6
f 809/3/6 810/3/6 813/3/6
f 813/3/6 810/3/6 814/3/6
f 815/2/6 816/2/6 819/2/6
f 819/2/6 816/2/6 820/2/6
f 817/2/6 818/2/6 821/2/6
f 821/2/6 818/2/6 822/2/6
f 823/2/6 824/2/6 827/2/6
f 827/2/6 824/2/6 828/2/6
f 825/2/6 826/2/6 829/2/6
f 829/2/6 826/2/6 830/2/6
f 831/2/6 832/2/6 834/2/6
f 834/2/6 832/2/6 835/2/6
f 833/2/6 834/2/6 837/2/6
f 835/2/6 836/2/6 837/2/6
f 834/2/6 835/2/6 837/2/6
f 837/2/6 836/2/6 838/2/6
